<?xml version="1.0" encoding="UTF-8" standalone="no"?>
<svg
   xmlns:dc="http://purl.org/dc/elements/1.1/"
   xmlns:cc="http://creativecommons.org/ns#"
   xmlns:rdf="http://www.w3.org/1999/02/22-rdf-syntax-ns#"
   xmlns:svg="http://www.w3.org/2000/svg"
   xmlns="http://www.w3.org/2000/svg"
   xmlns:sodipodi="http://sodipodi.sourceforge.net/DTD/sodipodi-0.dtd"
   xmlns:inkscape="http://www.inkscape.org/namespaces/inkscape"
   version="1.1"
   id="svg2"
   xml:space="preserve"
   width="132.93333"
   height="152.16"
   viewBox="0 0 132.93333 152.16"
   sodipodi:docname="tsu_logo_basic_sign.eps"><metadata
     id="metadata8"><rdf:RDF><cc:Work
         rdf:about=""><dc:format>image/svg+xml</dc:format><dc:type
           rdf:resource="http://purl.org/dc/dcmitype/StillImage" /></cc:Work></rdf:RDF></metadata><defs
     id="defs6" /><sodipodi:namedview
     pagecolor="#ffffff"
     bordercolor="#666666"
     borderopacity="1"
     objecttolerance="10"
     gridtolerance="10"
     guidetolerance="10"
     inkscape:pageopacity="0"
     inkscape:pageshadow="2"
     inkscape:window-width="640"
     inkscape:window-height="480"
     id="namedview4" /><g
     id="g10"
     inkscape:groupmode="layer"
     inkscape:label="ink_ext_XXXXXX"
     transform="matrix(1.3333333,0,0,-1.3333333,0,152.16)"><g
       id="g12"
       transform="scale(0.1)"><path
         d="M 223.801,526.191 V 873.43 H 394.734 V 515.066 c 0,-53.359 34.996,-108.156 104.207,-108.156 68.36,0 103.387,54.797 103.387,108.156 V 873.43 h 170.91 V 527.039 c 0,-138.418 -86.699,-274.512 -274.297,-274.512 -187.601,0 -275.14,136.094 -275.14,273.664"
         style="fill:#FFFFFF;fill-opacity:1;fill-rule:nonzero;stroke:none"
         id="path14" /><path
         d="M 925.844,493.887 C 925.844,260.809 736.227,71.1914 503.145,71.1914 h -9.258 C 260.813,71.1914 71.1914,260.809 71.1914,493.887 V 980.188 H 925.844 Z m 15.254,589.603 h -83.907 l -55.761,-15.36 v -19.96 H 618.609 v 21.09 l -56.007,21.65 h -45.379 l -9.485,5.18 c 0.321,0.95 0.602,1.92 0.602,2.97 0,4.03 -2.516,7.43 -6.051,8.83 v 33.28 h -7.047 v -33.3 c -3.488,-1.41 -5.965,-4.81 -5.965,-8.81 0,-1.04 0.286,-1.99 0.59,-2.93 l -9.59,-5.22 h -47.504 l -53.335,-22.45 v -20.29 H 195.414 v 19.89 l -55.758,15.43 H 55.7578 L 0,1068.05 v -79.956 0 -494.207 C 0,221.551 221.559,0 493.887,0 h 9.258 c 272.328,0 493.89,221.551 493.89,493.887 v 543.883 h -0.183 v 30.22 l -55.754,15.5"
         style="fill:#FFFFFF;fill-opacity:1;fill-rule:nonzero;stroke:none"
         id="path16" /></g></g></svg>
